<?xml version="1.0" encoding="UTF-8" standalone="no"?>
<svg width="337.608mm" height="193.675mm"
 viewBox="0 0 957 549"
 xmlns="http://www.w3.org/2000/svg" xmlns:xlink="http://www.w3.org/1999/xlink"  version="1.2" baseProfile="tiny">
<title>Qt SVG Document</title>
<desc>MATLAB, The MathWorks, Inc. Version 25.2.0.3055257 R2025b Update 2</desc>
<defs>
</defs>
<g fill="none" stroke="black" stroke-width="1" fill-rule="evenodd" stroke-linecap="square" stroke-linejoin="bevel" >

<g fill="#ffffff" fill-opacity="1" stroke="none" transform="matrix(0.750138,0,0,0.750227,-71.9385,-44.2638)"
font-family="MS Shell Dlg 2" font-size="8.25" font-weight="400" font-style="normal" 
>
<path vector-effect="none" fill-rule="evenodd" d="M94,58 L1370,58 L1370,790 L94,790 L94,58"/>
</g>

<g fill="#e6e6e6" fill-opacity="0.301961" stroke="none" transform="matrix(7.50138e-05,0,0,7.50227e-05,-71.9385,-44.2638)"
font-family="MS Shell Dlg 2" font-size="8.25" font-weight="400" font-style="normal" 
>
<path vector-effect="none" fill-rule="evenodd" d="M5.86e+06,7.27e+06 L9.76e+06,7.27e+06 L9.76e+06,610000 L5.86e+06,610000 L5.86e+06,7.27e+06"/>
</g>

<g fill="none" stroke="#ff0000" stroke-opacity="1" stroke-width="5.33333" stroke-linecap="butt" stroke-linejoin="round" transform="matrix(0.750138,0,0,0.750227,-71.9385,-44.2638)"
font-family="MS Shell Dlg 2" font-size="8.25" font-weight="400" font-style="normal" 
>
<polyline fill="none" vector-effect="none" points="196,190.818 199.714,203.674 203.429,226.613 207.143,239.611 210.857,216.634 214.571,233.165 218.286,218.139 222,194.572 225.714,168.685 229.429,172.76 233.143,176.014 236.857,179.22 240.571,185.859 244.286,199.567 248,199.808 251.714,202.415 255.429,190.743 259.143,166.503 262.857,153.841 266.571,174.703 270.286,198.259 274,209.038 277.714,242.121 281.429,267.819 285.143,244.394 288.857,230.075 292.571,244.036 296.286,267.236 300,271.635 303.714,253.75 307.429,243.455 311.143,230.263 314.857,243.679 318.571,282.499 322.286,283.355 326,289.1 329.714,278.125 333.429,277.099 337.143,264.07 340.857,253.621 344.571,233.799 348.286,220.983 352,219.988 355.714,221.882 359.429,248.514 363.143,252.713 366.857,287.059 370.571,308.879 374.286,316.879 378,302.151 381.714,293.007 385.429,308.464 389.143,295.14 392.857,262.164 396.571,253.265 400.286,258.893 404,291.236 407.714,314.472 411.429,330.409 415.143,305.438 418.857,277.36 422.571,260.353 426.286,247.368 430,236.211 433.714,221.818 437.429,218.691 441.143,212.434 444.857,241.933 448.571,281.618 452.286,308.638 456,294.097 459.714,271.791 463.429,273.835 467.143,275.639 470.857,306.481 474.571,315.454 478.286,290.898 482,246.758 485.714,227.602 489.429,226.3 493.143,256.504 496.857,257.149 500.571,236.947 504.286,242.539 508,238.239 511.714,221.551 515.429,212.369 519.143,191.038 522.857,200.06 526.571,213.389 530.286,225.142 534,248.063 537.714,271.151 541.429,245.407 545.143,203.91 548.857,199.728 552.571,209.597 556.286,225.843 560,191.06 563.714,168.127 567.429,183.54 571.143,156.858 574.857,149.163 578.571,193.426 582.286,216.922 586,220.027 589.714,208.131 593.429,179.948 597.143,162.387 600.857,192.843 604.571,214.056 608.286,213.233 612,236.683 615.714,282.819 619.429,305.468 623.143,309.069 626.857,303.952 630.571,293.011 634.286,270.359 638,276.126 641.714,307.304 645.429,313.46 649.143,321.844 652.857,325.518 656.571,317.595 660.286,315.565 664,313.449 667.714,323.037 671.429,329.629 675.143,317.145 678.857,309.108 682.571,300.618 686.286,290.22 690,283.772 693.714,281.988 697.429,282.292 701.143,279.463 704.857,293.592 708.571,297.104 712.286,299.551 716,292.41 719.714,286.703 723.429,275.464 727.143,271.674 730.857,294.886 734.571,314.665 738.286,325.611 742,331.746 745.714,327.171 749.429,330.1 753.143,331.117 756.857,323.412 760.571,326.052 764.286,344.09 768,352.758 771.714,350.204 775.429,370.992 779.143,389.247 782.857,370.881 786.571,329.12 790.286,304.066 794,309.519 797.714,348.018 801.429,373.553 805.143,360.043 808.857,327.293 812.571,304.623 816.286,294.76 820,280.223 823.714,262.403 827.429,264.799 831.143,288.869 834.857,309.959 838.571,327.35 842.286,330.802 846,342.934 849.714,332.774 853.429,321.118 857.143,352.295 860.857,383.72 864.571,396.766 868.286,400.117 872,413.944 875.714,406.848 879.429,379.677 883.143,370.417 886.857,377.333 890.571,404.935 894.286,421.013 898,404.611 901.714,394.168 905.429,401.464 909.143,389.873 912.857,376.937 916.571,392.598 920.286,408.556 924,405.128 927.714,396.557 931.429,396.036 935.143,412.888 938.857,422.267 942.571,407.242 946.286,406.665 950,414.263 953.714,407.648 957.429,405.952 961.143,399.528 964.857,381.829 968.571,381.8 972.286,377.523 976,360.422 979.714,347.327 983.429,286.178 987.143,269.811 990.857,290.984 994.571,307.478 998.286,330.794 1002,328.045 1005.71,306.974 1009.43,278.703 1013.14,264.151 1016.86,280.912 1020.57,286.345 1024.29,270.838 1028,273.73 1031.71,283.709 1035.43,267.449 1039.14,286.495 1042.86,299.867 1046.57,305.565 1050.29,315.443 1054,318.75 1057.71,319.397 1061.43,310.763 1065.14,319.15 1068.86,326.231 1072.57,323.227 1076.29,301.559 1080,289.607 1083.71,287.805 1087.43,253.83 1091.14,245.748 1094.86,274.59 1098.57,273.404 1102.29,253.466 1106,260.342 1109.71,270.91 1113.43,285.346 1117.14,301.93 1120.86,282.81 1124.57,271.013 1128.29,264.401 1132,239.806 1135.71,267.434 1139.43,282.275 1143.14,266.531 1146.86,273.787 1150.57,278.953 1154.29,291.729 1158,294.618 1161.71,291.307 1165.43,303.864 1169.14,304.955 1172.86,319.981 1176.57,320.408 1180.29,278.427 1184,273.651 1187.71,297.4 1191.43,294.612 1195.14,267.384 1198.86,271.976 1202.57,268.529 1206.29,257.45 1210,248.36 1213.71,233.6 1217.43,234.42 1221.14,209.816 1224.86,210.378 1228.57,205.407 1232.29,226.417 1236,239.689 1239.71,232.588 1243.43,242.67 1247.14,275.6 1250.86,263.809 1254.57,258.526 1258.29,265.955 1262,275.058 1265.71,293.82 1269.43,303.286 1273.14,282.182 1276.86,272.31 1280.57,270.209 1284.29,281.546 1288,293.025 1291.71,290.153 1295.43,253.283 1299.14,224.35 1302.86,211.188 1306.57,244.444 1310.29,243.769 1314,233.024 1317.71,253.237 1321.43,270.553 1325.14,280.407 1328.86,292.345 1332.57,289.13 1336.29,289.644 1340,306.078 1343.71,297.537 1347.43,270.913 1351.14,251.389 1354.86,270.531 1358.57,295.929 1362.29,320.355 1366,317.51 " />
</g>

<g fill="none" stroke="#008000" stroke-opacity="1" stroke-width="5.33333" stroke-linecap="butt" stroke-linejoin="round" transform="matrix(0.750138,0,0,0.750227,-71.9385,-44.2638)"
font-family="MS Shell Dlg 2" font-size="8.25" font-weight="400" font-style="normal" 
>
<polyline fill="none" vector-effect="none" points="196,304.699 199.714,289.154 203.429,259.751 207.143,274.421 210.857,260.198 214.571,257.978 218.286,248.045 222,253.766 225.714,257.838 229.429,238.658 233.143,217.415 236.857,197.027 240.571,216 244.286,228.622 248,238.757 251.714,272.496 255.429,281.827 259.143,281.008 262.857,265.817 266.571,247.752 270.286,238.165 274,233.06 277.714,241.774 281.429,260.222 285.143,239.939 288.857,234.717 292.571,228.058 296.286,209.952 300,194.884 303.714,156.794 307.429,122.151 311.143,123.944 314.857,138.925 318.571,139.716 322.286,169.049 326,174.99 329.714,180.325 333.429,158.345 337.143,118.219 340.857,123.808 344.571,131.998 348.286,124.498 352,138.255 355.714,136.057 359.429,134.19 363.143,118.507 366.857,120.591 370.571,136.403 374.286,179.823 378,188.44 381.714,203.71 385.429,208.647 389.143,229.343 392.857,226.759 396.571,197.773 400.286,204.604 404,247.014 407.714,257.392 411.429,250.377 415.143,224.646 418.857,214.067 422.571,192.101 426.286,170.86 430,131.163 433.714,107.85 437.429,136.087 441.143,158.934 444.857,181.402 448.571,210.664 452.286,218.705 456,208.246 459.714,217.765 463.429,227.934 467.143,239.779 470.857,225.379 474.571,228.345 478.286,260.407 482,275.347 485.714,289.612 489.429,266.361 493.143,250.638 496.857,224.144 500.571,219.713 504.286,244.169 508,242.893 511.714,257.373 515.429,242.272 519.143,201.451 522.857,184.945 526.571,202.556 530.286,225.002 534,211.06 537.714,180.168 541.429,146.214 545.143,121.553 548.857,145.478 552.571,181.205 556.286,207.596 560,235.594 563.714,229.575 567.429,196.967 571.143,222.125 574.857,257.224 578.571,260.444 582.286,247.485 586,237.427 589.714,220.723 593.429,203.02 597.143,243.044 600.857,301.381 604.571,393.243 608.286,440.638 612,451.37 615.714,489.718 619.429,527.262 623.143,528.306 626.857,534.162 630.571,544.285 634.286,560.846 638,568.266 641.714,568.708 645.429,556.331 649.143,551.605 652.857,548.52 656.571,546.794 660.286,528.594 664,557.292 667.714,564.51 671.429,563.528 675.143,560.964 678.857,542.694 682.571,535.056 686.286,542.22 690,547.11 693.714,535.022 697.429,536.266 701.143,557.299 704.857,588.406 708.571,602.938 712.286,590.12 716,587.409 719.714,605.991 723.429,605.302 727.143,595.514 730.857,604.67 734.571,614.172 738.286,628.701 742,631.353 745.714,626.781 749.429,610.88 753.143,608.321 756.857,611.903 760.571,622.704 764.286,623.894 768,620.14 771.714,624.67 775.429,616.743 779.143,606.86 782.857,589.874 786.571,576.249 790.286,584.908 794,606.002 797.714,596.011 801.429,599.769 805.143,613.007 808.857,621.925 812.571,621.716 816.286,626.581 820,606.931 823.714,583.697 827.429,581.444 831.143,582.164 834.857,577.774 838.571,596.127 842.286,593.789 846,580.546 849.714,582.332 853.429,605.097 857.143,622.925 860.857,634.007 864.571,639.557 868.286,636.296 872,615.922 875.714,599.7 879.429,585.636 883.143,576.731 886.857,591.411 890.571,611.884 894.286,620.769 898,607.619 901.714,597.675 905.429,605.855 909.143,608.972 912.857,614.288 916.571,617.304 920.286,634.529 924,610.634 927.714,582.796 931.429,562.821 935.143,568.829 938.857,566.481 942.571,589.059 946.286,595.195 950,598.894 953.714,589.76 957.429,592.359 961.143,608.462 964.857,626.739 968.571,628.137 972.286,635.868 976,624.969 979.714,585.267 983.429,520.517 987.143,441.316 990.857,396.801 994.571,426.16 998.286,446.053 1002,410.806 1005.71,361.764 1009.43,323.412 1013.14,310.728 1016.86,325.231 1020.57,321.448 1024.29,322.147 1028,331.342 1031.71,305.346 1035.43,273.342 1039.14,233.083 1042.86,229.909 1046.57,263.953 1050.29,321.167 1054,312.736 1057.71,300.515 1061.43,297.771 1065.14,310.998 1068.86,310.263 1072.57,290.067 1076.29,261.216 1080,256.085 1083.71,280.912 1087.43,298.212 1091.14,279.168 1094.86,241.713 1098.57,212.457 1102.29,219.393 1106,206.373 1109.71,188.121 1113.43,172.463 1117.14,177.194 1120.86,198.977 1124.57,241.197 1128.29,222.403 1132,196.159 1135.71,200.54 1139.43,182.369 1143.14,175.71 1146.86,193.473 1150.57,234.947 1154.29,232.913 1158,224.688 1161.71,219.174 1165.43,258.617 1169.14,258.172 1172.86,259.346 1176.57,245.035 1180.29,249.6 1184,271.385 1187.71,242.292 1191.43,230.849 1195.14,266.694 1198.86,286.309 1202.57,266.454 1206.29,257.642 1210,248.676 1213.71,249.436 1217.43,243.773 1221.14,264.058 1224.86,287.779 1228.57,281.977 1232.29,256.305 1236,226.211 1239.71,242.501 1243.43,276.239 1247.14,292.299 1250.86,282.081 1254.57,270.659 1258.29,261.2 1262,225.665 1265.71,180.692 1269.43,181.429 1273.14,184.91 1276.86,188.538 1280.57,213.078 1284.29,225.546 1288,227.411 1291.71,267.33 1295.43,302.092 1299.14,305.12 1302.86,307.166 1306.57,311.613 1310.29,290.03 1314,273.091 1317.71,243.79 1321.43,227.67 1325.14,240.304 1328.86,234.272 1332.57,232.564 1336.29,230.083 1340,204.51 1343.71,162.568 1347.43,139.795 1351.14,147.078 1354.86,157.801 1358.57,177.252 1362.29,188.863 1366,198.879 " />
</g>

<g fill="#000000" fill-opacity="0.701961" stroke="#000000" stroke-opacity="0.701961" stroke-width="0.266667" stroke-linecap="butt" stroke-linejoin="round" transform="matrix(0.750138,0,0,0.750227,-71.9385,-44.2638)"
font-family="MS Shell Dlg 2" font-size="8.25" font-weight="400" font-style="normal" 
>
<polyline fill="none" vector-effect="none" points="586,727 586,61 " />
<polyline fill="none" vector-effect="none" points="976,727 976,61 " />
</g>

<g fill="#000000" fill-opacity="1" stroke="#000000" stroke-opacity="1" stroke-width="1" stroke-linecap="square" stroke-linejoin="bevel" transform="matrix(0.750138,0,0,0.750227,97.2176,544.499)"
font-family="Arial" font-size="16" font-weight="700" font-style="normal" 
>
<text fill="#000000" fill-opacity="1" stroke="none" xml:space="preserve" x="0" y="0" font-family="Arial" font-size="16" font-weight="700" font-style="normal" 
 >Time (s)</text>
</g>

<g fill="#000000" fill-opacity="1" stroke="#000000" stroke-opacity="1" stroke-width="1" stroke-linecap="square" stroke-linejoin="bevel" transform="matrix(0,-0.750227,0.750138,0,9.75151,500.176)"
font-family="Arial" font-size="16" font-weight="700" font-style="normal" 
>
<text fill="#000000" fill-opacity="1" stroke="none" xml:space="preserve" x="0" y="0" font-family="Arial" font-size="16" font-weight="700" font-style="normal" 
 >Variance</text>
</g>

<g fill="#000000" fill-opacity="1" stroke="#000000" stroke-opacity="1" stroke-width="6.66667" stroke-linecap="butt" stroke-linejoin="round" transform="matrix(0.750138,0,0,0.750227,-71.9385,-44.2638)"
font-family="Arial" font-size="16" font-weight="700" font-style="normal" 
>
<polyline fill="none" vector-effect="none" points="196.17,727.13 313.117,727.13 " />
<polyline fill="none" vector-effect="none" points="196.17,727.13 196.17,660.544 " />
</g>
</g>
</svg>
