<?xml version="1.0" encoding="UTF-8" standalone="no"?>
<svg width="337.256mm" height="193.675mm"
 viewBox="0 0 956 549"
 xmlns="http://www.w3.org/2000/svg" xmlns:xlink="http://www.w3.org/1999/xlink"  version="1.2" baseProfile="tiny">
<title>Qt SVG Document</title>
<desc>MATLAB, The MathWorks, Inc. Version 25.2.0.3055257 R2025b Update 2</desc>
<defs>
</defs>
<g fill="none" stroke="black" stroke-width="1" fill-rule="evenodd" stroke-linecap="square" stroke-linejoin="bevel" >

<g fill="#ffffff" fill-opacity="1" stroke="none" transform="matrix(0.75079,0,0,0.75031,-72.633,-43.5186)"
font-family="MS Shell Dlg 2" font-size="8.25" font-weight="400" font-style="normal" 
>
<path vector-effect="none" fill-rule="evenodd" d="M96,57 L1370,57 L1370,789 L96,789 L96,57"/>
</g>

<g fill="#e6e6e6" fill-opacity="0.301961" stroke="none" transform="matrix(7.5079e-05,0,0,7.5031e-05,-72.633,-43.5186)"
font-family="MS Shell Dlg 2" font-size="8.25" font-weight="400" font-style="normal" 
>
<path vector-effect="none" fill-rule="evenodd" d="M5.87667e+06,7.26e+06 L9.78333e+06,7.26e+06 L9.78333e+06,610000 L5.87667e+06,610000 L5.87667e+06,7.26e+06"/>
</g>

<g fill="none" stroke="#ff0000" stroke-opacity="1" stroke-width="2.66667" stroke-linecap="butt" stroke-linejoin="round" transform="matrix(0.75079,0,0,0.75031,-72.633,-43.5186)"
font-family="MS Shell Dlg 2" font-size="8.25" font-weight="400" font-style="normal" 
>
<polyline fill="none" vector-effect="none" points="197,328.353 200.711,335.09 204.423,354.166 208.134,308.874 211.845,310.408 215.557,342.671 219.268,307.5 222.979,318.401 226.691,337.655 230.402,274.195 234.113,265.403 237.825,250.557 241.536,262.751 245.247,317.969 248.959,295.231 252.67,295.875 256.381,333.201 260.093,309.653 263.804,336.489 267.515,355.42 271.227,327.205 274.938,321.375 278.649,343.87 282.361,346.656 286.072,360.323 289.783,379.732 293.495,378.417 297.206,382.275 300.917,377.521 304.629,365.281 308.34,370.674 312.051,386.278 315.763,402.648 319.474,420.816 323.185,437.789 326.897,449.635 330.608,441.051 334.319,466.203 338.031,452.013 341.742,444.099 345.453,420.105 349.165,411.077 352.876,441.627 356.587,418.391 360.299,410.381 364.01,422.518 367.721,424.589 371.433,411.596 375.144,431.901 378.855,384.733 382.567,399.75 386.278,428.286 389.989,389.132 393.701,353.449 397.412,339.068 401.123,329.424 404.835,327.657 408.546,328.83 412.257,323.908 415.969,332.855 419.68,295.719 423.391,298.609 427.103,341.772 430.814,350.848 434.525,358.439 438.237,344.247 441.948,342.393 445.659,354.468 449.371,341.397 453.082,350.928 456.793,353.539 460.505,344.428 464.216,317.425 467.927,308.802 471.639,333.445 475.35,335.839 479.061,278.779 482.773,276.658 486.484,280.197 490.195,262.369 493.907,345.134 497.618,365.562 501.329,356.881 505.041,352.055 508.752,318.764 512.463,272.341 516.175,291.819 519.886,272.123 523.597,306.417 527.309,341.737 531.02,354.084 534.731,376.042 538.443,347.167 542.154,312.658 545.865,308.135 549.577,300.41 553.288,292.066 556.999,325.196 560.711,314.82 564.422,302.003 568.133,368.279 571.845,375.21 575.556,374.548 579.267,373.149 582.979,375.527 586.69,374.183 590.401,402.353 594.113,383.85 597.824,439.817 601.535,439.658 605.247,426.101 608.958,427.967 612.669,414.366 616.381,442.971 620.092,464.382 623.803,489.727 627.515,495.975 631.226,484.28 634.937,484.943 638.649,490.374 642.36,480.687 646.071,473.536 649.783,475.97 653.494,453.184 657.205,456.081 660.917,454.279 664.628,438.422 668.339,434.127 672.051,441.467 675.762,433.805 679.473,439.007 683.185,447.586 686.896,436.02 690.607,386.608 694.319,347.897 698.03,366.197 701.741,367.357 705.453,359.185 709.164,361.731 712.875,348.091 716.587,348.459 720.298,351.786 724.009,376.082 727.721,396.622 731.432,416.23 735.143,425.472 738.855,427.872 742.566,423.416 746.277,427.544 749.989,426.794 753.7,416.163 757.411,375.802 761.123,367.859 764.834,398.253 768.545,370.543 772.257,329.465 775.968,354.286 779.679,360.463 783.391,340.792 787.102,365.85 790.813,370.166 794.525,373.308 798.236,397.563 801.947,386.006 805.659,379.033 809.37,392.961 813.081,363.248 816.793,408.611 820.504,397.248 824.215,344.427 827.927,352.908 831.638,350.589 835.349,359.751 839.061,415.127 842.772,417.595 846.483,438.765 850.195,453.381 853.906,432.025 857.617,447.133 861.329,470.175 865.04,466.124 868.751,465.249 872.463,448.703 876.174,436.072 879.885,430.401 883.597,429.523 887.308,452.299 891.019,451.698 894.731,419.234 898.442,407.181 902.153,394.142 905.865,403.261 909.576,409.063 913.287,391.776 916.999,377.264 920.71,360.96 924.421,351.831 928.133,374.845 931.844,366.6 935.555,368.299 939.267,394.677 942.978,385.176 946.689,361.922 950.401,372.823 954.112,344.094 957.823,343.434 961.535,357.287 965.246,340.52 968.957,371.931 972.669,374.195 976.38,357.253 980.091,374.584 983.803,341.951 987.514,302.778 991.225,337.225 994.937,422.003 998.648,432.976 1002.36,423.868 1006.07,435.599 1009.78,419.74 1013.49,388.262 1017.2,380.682 1020.92,393.887 1024.63,371.979 1028.34,375.657 1032.05,395.227 1035.76,376.512 1039.47,392.64 1043.18,421.696 1046.9,403.632 1050.61,357.591 1054.32,352.494 1058.03,371.54 1061.74,394.986 1065.45,419.513 1069.16,407.009 1072.87,396.927 1076.59,374.739 1080.3,347.636 1084.01,370.015 1087.72,380.787 1091.43,349.584 1095.14,393.018 1098.85,371.293 1102.57,346.854 1106.28,352.984 1109.99,329.996 1113.7,361.985 1117.41,384.211 1121.12,360.558 1124.83,390.415 1128.54,405.75 1132.26,349.159 1135.97,382.492 1139.68,392.854 1143.39,371.559 1147.1,406.947 1150.81,392.062 1154.52,418.132 1158.24,426.876 1161.95,401.954 1165.66,437.401 1169.37,403.095 1173.08,364.332 1176.79,370.705 1180.5,331.652 1184.21,351.506 1187.93,385.416 1191.64,343.524 1195.35,328.538 1199.06,307.863 1202.77,248.404 1206.48,248.559 1210.19,238.144 1213.91,273.934 1217.62,296.037 1221.33,290.163 1225.04,307.387 1228.75,353.985 1232.46,319.625 1236.17,350.128 1239.88,343.352 1243.6,280.326 1247.31,340.173 1251.02,348.096 1254.73,309.219 1258.44,349.113 1262.15,366.53 1265.86,345.639 1269.58,327.977 1273.29,330.802 1277,344.221 1280.71,352.348 1284.42,348.904 1288.13,357.585 1291.84,351.705 1295.55,347.593 1299.27,346.056 1302.98,352.085 1306.69,359.158 1310.4,365.201 1314.11,376 1317.82,410.155 1321.53,405.047 1325.25,400.759 1328.96,417.696 1332.67,402.19 1336.38,405.957 1340.09,445.31 1343.8,393.514 1347.51,388.417 1351.22,398.383 1354.94,363.817 1358.65,346.985 1362.36,350.39 1366.07,308.707 " />
</g>

<g fill="none" stroke="#008000" stroke-opacity="1" stroke-width="2.66667" stroke-linecap="butt" stroke-linejoin="round" transform="matrix(0.75079,0,0,0.75031,-72.633,-43.5186)"
font-family="MS Shell Dlg 2" font-size="8.25" font-weight="400" font-style="normal" 
>
<polyline fill="none" vector-effect="none" points="197,405.421 200.711,424.295 204.423,424.587 208.134,416.97 211.845,428.181 215.557,455.121 219.268,459.982 222.979,445.771 226.691,425.179 230.402,433.122 234.113,443.914 237.825,403.293 241.536,381.395 245.247,397.623 248.959,380.978 252.67,386.414 256.381,406.16 260.093,402.502 263.804,395.36 267.515,403.059 271.227,396.244 274.938,415.959 278.649,428.762 282.361,401.592 286.072,390.468 289.783,386.401 293.495,370.728 297.206,376.306 300.917,382.075 304.629,361.788 308.34,381.874 312.051,392.275 315.763,384.477 319.474,374.228 323.185,368.073 326.897,373.118 330.608,379.059 334.319,378.429 338.031,370.982 341.742,384.606 345.453,373.195 349.165,335.396 352.876,321.465 356.587,322.514 360.299,309.891 364.01,328.596 367.721,309.37 371.433,287.576 375.144,314.867 378.855,307.81 382.567,296.328 386.278,337.043 389.989,380.577 393.701,368.438 397.412,371.48 401.123,366.852 404.835,361.885 408.546,385.137 412.257,368.552 415.969,386.207 419.68,410.661 423.391,419.742 427.103,439.173 430.814,450.088 434.525,425.942 438.237,470.75 441.948,451.071 445.659,407.946 449.371,376.423 453.082,330.083 456.793,318.466 460.505,322.297 464.216,335.3 467.927,379.647 471.639,382.77 475.35,359.077 479.061,374.332 482.773,347.895 486.484,335.823 490.195,310.62 493.907,303.123 497.618,278.539 501.329,286.354 505.041,321.774 508.752,293.344 512.463,259.447 516.175,280.466 519.886,264.114 523.597,274.979 527.309,308.77 531.02,299.056 534.731,311.424 538.443,331.385 542.154,319.599 545.865,330.159 549.577,360.126 553.288,350.167 556.999,359.709 560.711,341.873 564.422,347.74 568.133,346.248 571.845,357.516 575.556,367.738 579.267,362.973 582.979,357.673 586.69,371.355 590.401,386.05 594.113,381.039 597.824,410.557 601.535,444.743 605.247,464.716 608.958,464.773 612.669,463.199 616.381,511.531 620.092,525.464 623.803,537.74 627.515,534.978 631.226,531.593 634.937,548.437 638.649,551.842 642.36,540.19 646.071,549.845 649.783,552.146 653.494,553.372 657.205,555.548 660.917,561.454 664.628,561.761 668.339,553.809 672.051,538.857 675.762,523.691 679.473,527.193 683.185,527.338 686.896,540.039 690.607,557.903 694.319,559.28 698.03,551.204 701.741,547.894 705.453,528.188 709.164,524.802 712.875,538.326 716.587,547.671 720.298,560.033 724.009,569.525 727.721,578.516 731.432,558.795 735.143,535.604 738.855,523.191 742.566,504.935 746.277,510.707 749.989,513.82 753.7,526.222 757.411,536.054 761.123,547.697 764.834,565.216 768.545,562.726 772.257,573.17 775.968,557.275 779.679,525.095 783.391,511.854 787.102,533.101 790.813,529.683 794.525,546.735 798.236,552.55 801.947,546.346 805.659,548.865 809.37,552.399 813.081,548.976 816.793,554.511 820.504,543.944 824.215,538.373 827.927,555.639 831.638,569.455 835.349,560.721 839.061,545.321 842.772,547.182 846.483,548.543 850.195,556.387 853.906,555.383 857.617,561.279 861.329,572.06 865.04,575.044 868.751,560.659 872.463,558.281 876.174,538.686 879.885,497.212 883.597,482.318 887.308,472.285 891.019,512.372 894.731,544.478 898.442,561.187 902.153,570.496 905.865,576.7 909.576,577.135 913.287,578.776 916.999,572.708 920.71,577.943 924.421,589.601 928.133,574.074 931.844,569.681 935.555,564.237 939.267,549.099 942.978,540.191 946.689,517.663 950.401,527.779 954.112,562.866 957.823,566.705 961.535,549.338 965.246,541.397 968.957,516.677 972.669,521.119 976.38,535.096 980.091,544.179 983.803,545.64 987.514,494.584 991.225,430.967 994.937,406.929 998.648,436.189 1002.36,435.208 1006.07,426.997 1009.78,424.495 1013.49,423.596 1017.2,439.093 1020.92,435.823 1024.63,453.244 1028.34,472.432 1032.05,451.954 1035.76,420.462 1039.47,407.196 1043.18,388.488 1046.9,395.308 1050.61,382.833 1054.32,344.835 1058.03,378.906 1061.74,413.465 1065.45,405.341 1069.16,396.693 1072.87,393.013 1076.59,381.374 1080.3,377.824 1084.01,392.421 1087.72,381.517 1091.43,402.015 1095.14,384.511 1098.85,415.287 1102.57,446.644 1106.28,436.294 1109.99,429.128 1113.7,440.045 1117.41,384.64 1121.12,382.233 1124.83,390.392 1128.54,335.265 1132.26,308.879 1135.97,349.856 1139.68,314.759 1143.39,300.285 1147.1,330.71 1150.81,312.778 1154.52,321.533 1158.24,355.598 1161.95,350.977 1165.66,337.477 1169.37,357.763 1173.08,363.164 1176.79,347.404 1180.5,352.197 1184.21,362.279 1187.93,344.842 1191.64,375.645 1195.35,388.281 1199.06,356.934 1202.77,374.941 1206.48,337.152 1210.19,351.483 1213.91,390.015 1217.62,371.691 1221.33,397.801 1225.04,422.563 1228.75,393.511 1232.46,427.21 1236.17,431.868 1239.88,416.299 1243.6,431.36 1247.31,405.576 1251.02,425.677 1254.73,437.191 1258.44,437.294 1262.15,427.276 1265.86,406.596 1269.58,442.842 1273.29,461.907 1277,442.277 1280.71,462.843 1284.42,477.143 1288.13,439.619 1291.84,461.298 1295.55,449.477 1299.27,420.754 1302.98,433.933 1306.69,458.35 1310.4,452.592 1314.11,460.926 1317.82,440.291 1321.53,397.874 1325.25,425.727 1328.96,418.247 1332.67,395.513 1336.38,359.092 1340.09,368.73 1343.8,384.138 1347.51,416.964 1351.22,399.271 1354.94,335.873 1358.65,344.407 1362.36,316.112 1366.07,294.273 " />
</g>

<g fill="#212121" fill-opacity="0.701961" stroke="#212121" stroke-opacity="0.701961" stroke-width="2" stroke-linecap="butt" stroke-linejoin="round" transform="matrix(0.75079,0,0,0.75031,-72.633,-43.5186)"
font-family="MS Shell Dlg 2" font-size="8.25" font-weight="400" font-style="normal" 
>
<polyline fill="none" vector-effect="none" points="587.667,726 587.667,61 " />
<polyline fill="none" vector-effect="none" points="978.333,726 978.333,61 " />
</g>

<g fill="#000000" fill-opacity="1" stroke="#000000" stroke-opacity="1" stroke-width="1" stroke-linecap="square" stroke-linejoin="bevel" transform="matrix(0.75079,0,0,0.75031,97.496,544.499)"
font-family="Arial" font-size="16" font-weight="700" font-style="normal" 
>
<text fill="#000000" fill-opacity="1" stroke="none" xml:space="preserve" x="0" y="0" font-family="Arial" font-size="16" font-weight="700" font-style="normal" 
 >Time (s)</text>
</g>

<g fill="#000000" fill-opacity="1" stroke="#000000" stroke-opacity="1" stroke-width="1" stroke-linecap="square" stroke-linejoin="bevel" transform="matrix(0,-0.75031,0.75079,0,9.75869,500.268)"
font-family="Arial" font-size="16" font-weight="700" font-style="normal" 
>
<text fill="#000000" fill-opacity="1" stroke="none" xml:space="preserve" x="0" y="0" font-family="Arial" font-size="16" font-weight="700" font-style="normal" 
 >Variance</text>
</g>

<g fill="#000000" fill-opacity="1" stroke="#000000" stroke-opacity="1" stroke-width="6.66667" stroke-linecap="butt" stroke-linejoin="round" transform="matrix(0.75079,0,0,0.75031,-72.633,-43.5186)"
font-family="Arial" font-size="16" font-weight="700" font-style="normal" 
>
<polyline fill="none" vector-effect="none" points="196.69,726.24 313.947,726.24 " />
<polyline fill="none" vector-effect="none" points="196.69,726.24 196.69,659.736 " />
</g>
</g>
</svg>
